<svg viewBox="0 0 500 500" xmlns="http://www.w3.org/2000/svg">
  <defs>
    <linearGradient id="gradAbout" x1="0%" y1="0%" x2="100%" y2="100%">
      <stop offset="0%" style="stop-color:#667eea;stop-opacity:0.08"/>
      <stop offset="100%" style="stop-color:#764ba2;stop-opacity:0.08"/>
    </linearGradient>
  </defs>
  <rect width="500" height="500" fill="url(#gradAbout)"/>
  <rect x="80" y="320" width="340" height="30" fill="#92400e" rx="8"/>
  <ellipse cx="250" cy="260" rx="45" ry="65" fill="#334155" opacity="0.9"/>
  <ellipse cx="250" cy="320" rx="50" ry="40" fill="#1e293b"/>
  <ellipse cx="250" cy="200" rx="38" ry="55" fill="#f97316"/>
  <circle cx="250" cy="110" r="35" fill="#d97706"/>
  <circle cx="235" cy="105" r="3" fill="#78350f"/>
  <circle cx="265" cy="105" r="3" fill="#78350f"/>
  <rect x="195" y="185" width="32" height="95" fill="#d97706" rx="16" transform="rotate(-35 211 185)"/>
  <line x1="180" y1="240" x2="130" y2="200" stroke="#2563eb" stroke-width="5" stroke-linecap="round"/>
  <rect x="273" y="195" width="32" height="110" fill="#d97706" rx="16" transform="rotate(20 289 195)"/>
  <rect x="110" y="315" width="140" height="80" fill="#1f2937" rx="8" transform="skewY(-12)"/>
  <rect x="120" y="320" width="120" height="55" fill="#374151" rx="5"/>
  <line x1="135" y1="340" x2="225" y2="340" stroke="#2563eb" stroke-width="2"/>
  <line x1="135" y1="355" x2="210" y2="355" stroke="#10b981" stroke-width="2"/>
  <rect x="280" y="300" width="85" height="120" fill="#f5f5f5" stroke="#d1d5db" stroke-width="2" rx="4"/>
  <line x1="295" y1="325" x2="350" y2="325" stroke="#2563eb" stroke-width="1.5"/>
  <line x1="295" y1="345" x2="355" y2="345" stroke="#2563eb" stroke-width="1.5"/>
  <line x1="295" y1="365" x2="340" y2="365" stroke="#10b981" stroke-width="1.5"/>
  <line x1="295" y1="385" x2="350" y2="385" stroke="#2563eb" stroke-width="1.5"/>
  <rect x="70" y="280" width="40" height="55" fill="#78350f" rx="4"/>
  <path d="M 115 300 Q 130 295 130 315" stroke="#78350f" stroke-width="6" fill="none" stroke-linecap="round"/>
  <rect x="68" y="275" width="44" height="4" fill="#92400e"/>
  <text x="380" y="100" font-size="40" font-weight="bold" fill="#2563eb" opacity="0.25" font-family="monospace">{</text>
  <text x="50" y="420" font-size="36" font-weight="bold" fill="#10b981" opacity="0.25" font-family="monospace">&lt;&gt;</text>
  <text x="420" y="450" font-size="32" font-weight="bold" fill="#f97316" opacity="0.25" font-family="monospace">;</text>
  <circle cx="420" cy="120" r="22" fill="none" stroke="#2563eb" stroke-width="2" opacity="0.2"/>
  <circle cx="100" cy="420" r="28" fill="none" stroke="#10b981" stroke-width="2" opacity="0.18"/>
</svg>