<svg viewBox="0 0 600 600" xmlns="http://www.w3.org/2000/svg">
  <defs>
    <linearGradient id="gradHero" x1="0%" y1="0%" x2="100%" y2="100%">
      <stop offset="0%" style="stop-color:#2563eb;stop-opacity:0.1"/>
      <stop offset="100%" style="stop-color:#764ba2;stop-opacity:0.1"/>
    </linearGradient>
  </defs>
  <rect width="600" height="600" fill="url(#gradHero)"/>
  <rect x="130" y="470" width="340" height="40" fill="#1e40af" rx="8"/>
  <rect x="120" y="280" width="360" height="200" fill="#2563eb" rx="15" stroke="#1e40af" stroke-width="3"/>
  <rect x="150" y="120" width="300" height="170" fill="#ffffff" rx="10"/>
  <line x1="170" y1="150" x2="430" y2="150" stroke="#e5e7eb" stroke-width="4" stroke-linecap="round"/>
  <line x1="170" y1="180" x2="400" y2="180" stroke="#2563eb" stroke-width="3" stroke-linecap="round"/>
  <line x1="170" y1="205" x2="380" y2="205" stroke="#2563eb" stroke-width="3" stroke-linecap="round"/>
  <line x1="170" y1="230" x2="420" y2="230" stroke="#10b981" stroke-width="3" stroke-linecap="round"/>
  <line x1="170" y1="255" x2="390" y2="255" stroke="#2563eb" stroke-width="3" stroke-linecap="round"/>
  <rect x="180" y="300" width="240" height="140" fill="#334155" rx="12" stroke="#1f2937" stroke-width="2"/>
  <circle cx="210" cy="330" r="5" fill="#64748b"/>
  <circle cx="245" cy="330" r="5" fill="#64748b"/>
  <circle cx="280" cy="330" r="5" fill="#64748b"/>
  <circle cx="315" cy="330" r="5" fill="#64748b"/>
  <circle cx="210" cy="365" r="5" fill="#64748b"/>
  <circle cx="245" cy="365" r="5" fill="#64748b"/>
  <circle cx="280" cy="365" r="5" fill="#64748b"/>
  <circle cx="315" cy="365" r="5" fill="#64748b"/>
  <ellipse cx="460" cy="360" rx="22" ry="28" fill="#f97316" opacity="0.85"/>
  <ellipse cx="460" cy="355" rx="15" ry="18" fill="#ea580c"/>
  <text x="60" y="110" font-size="48" font-weight="bold" fill="#2563eb" opacity="0.3" font-family="monospace">&lt;</text>
  <text x="520" y="130" font-size="44" font-weight="bold" fill="#10b981" opacity="0.3" font-family="monospace">/&gt;</text>
  <text x="500" y="400" font-size="40" font-weight="bold" fill="#f97316" opacity="0.3" font-family="monospace">{</text>
  <text x="50" y="480" font-size="44" font-weight="bold" fill="#764ba2" opacity="0.25" font-family="monospace">}</text>
  <circle cx="90" cy="140" r="28" fill="none" stroke="#2563eb" stroke-width="2" opacity="0.25"/>
  <circle cx="530" cy="480" r="35" fill="none" stroke="#10b981" stroke-width="2" opacity="0.2"/>
</svg>